<svg version="1" xmlns="http://www.w3.org/2000/svg" width="1706.667" height="1706.667" viewBox="0 0 1280.000000 1280.000000"><path d="M0 640v640h1280V0H0v640zm607-198.5V463h-66c-52.1 0-66 .3-66 1.2 0 .7 17.2 76.6 38.2 168.5L551.4 800H607v43l-45.2-.2-45.2-.3-48.3-211C441.8 515.4 420 420.4 420 420.2c0-.1 42.1-.2 93.5-.2H607v21.5zm247-20.4c0 .5-20.9 92.5-46.4 204.2-25.6 111.8-47.2 206.5-48.1 210.4l-1.7 7.3H646V420h104c72.8 0 104 .3 104 1.1z"/><path d="M690 631.5V800h16.4c14.8 0 16.5-.2 17-1.8.3-.9 17.4-75.5 38-165.7 20.6-90.2 37.7-165.2 38.1-166.8l.7-2.7H690v168.5z"/></svg>